<svg width="16" height="18" viewBox="0 0 16 18" fill="none" xmlns="http://www.w3.org/2000/svg">
<g clip-path="url(#clip0_10_42)">
<path d="M15.9843 5.65907C15.9469 4.79226 15.8094 4.19634 15.6124 3.67996C15.4093 3.13184 15.0967 2.64111 14.6872 2.23316C14.2871 1.81886 13.8026 1.49694 13.2713 1.29302C12.7619 1.09222 12.1805 0.952051 11.3304 0.913833C10.4739 0.872379 10.202 0.862793 8.02967 0.862793C5.85737 0.862793 5.58546 0.872379 4.73215 0.910596C3.88201 0.948814 3.29754 1.08911 2.79122 1.28979C2.25352 1.49694 1.77222 1.81563 1.37212 2.23316C0.96579 2.64111 0.650176 3.13508 0.450064 3.67685C0.253126 4.19634 0.115648 4.78902 0.0781653 5.65584C0.0375079 6.52912 0.0281067 6.80636 0.0281067 9.02125C0.0281067 11.2361 0.0375079 11.5134 0.0749908 12.3834C0.112474 13.2502 0.250074 13.8462 0.447012 14.3625C0.650176 14.9107 0.96579 15.4014 1.37212 15.8093C1.77222 16.2236 2.25669 16.5456 2.78804 16.7495C3.29754 16.9503 3.87883 17.0904 4.7291 17.1287C5.58229 17.167 5.85432 17.1765 8.02661 17.1765C10.1989 17.1765 10.4708 17.167 11.3241 17.1287C12.1743 17.0904 12.7587 16.9503 13.2651 16.7495C14.3403 16.3256 15.1905 15.4588 15.6062 14.3625C15.803 13.843 15.9406 13.2502 15.9781 12.3834C16.0156 11.5134 16.025 11.2361 16.025 9.02125C16.025 6.80636 16.0218 6.52912 15.9843 5.65907ZM14.5435 12.3197C14.5091 13.1164 14.3778 13.5466 14.2684 13.8335C13.9996 14.5442 13.4464 15.1082 12.7493 15.3823C12.468 15.4939 12.043 15.6277 11.2647 15.6627C10.4208 15.701 10.1677 15.7105 8.03284 15.7105C5.89803 15.7105 5.64175 15.701 4.80089 15.6627C4.01949 15.6277 3.59753 15.4939 3.31622 15.3823C2.96935 15.2516 2.65362 15.0445 2.39734 14.7736C2.13167 14.5091 1.9285 14.1904 1.8003 13.8367C1.69091 13.5499 1.55966 13.1164 1.52535 12.3229C1.48774 11.4625 1.47846 11.2043 1.47846 9.0276C1.47846 6.85092 1.48774 6.58962 1.52535 5.7324C1.55966 4.93567 1.69091 4.50544 1.8003 4.21862C1.9285 3.86483 2.13167 3.54302 2.40052 3.2816C2.65985 3.01071 2.97241 2.80356 3.3194 2.67298C3.6007 2.56143 4.02583 2.42761 4.80406 2.3925C5.64798 2.35429 5.9012 2.3447 8.03589 2.3447C10.1739 2.3447 10.427 2.35429 11.2678 2.3925C12.0492 2.42761 12.4712 2.56143 12.7525 2.67298C13.0994 2.80356 13.4151 3.01071 13.6714 3.2816C13.9371 3.54614 14.1402 3.86483 14.2684 4.21862C14.3778 4.50544 14.5091 4.93878 14.5435 5.7324C14.581 6.59286 14.5904 6.85092 14.5904 9.0276C14.5904 11.2043 14.581 11.4592 14.5435 12.3197Z" fill="white"/>
<path d="M8.02967 4.83057C5.76055 4.83057 3.91949 6.7076 3.91949 9.02134C3.91949 11.3351 5.76055 13.2121 8.02967 13.2121C10.2989 13.2121 12.1398 11.3351 12.1398 9.02134C12.1398 6.7076 10.2989 4.83057 8.02967 4.83057ZM8.02967 11.7398C6.55758 11.7398 5.3635 10.5224 5.3635 9.02134C5.3635 7.52026 6.55758 6.30289 8.02967 6.30289C9.50188 6.30289 10.6958 7.52026 10.6958 9.02134C10.6958 10.5224 9.50188 11.7398 8.02967 11.7398Z" fill="white"/>
<path d="M13.262 4.66488C13.262 5.20516 12.8324 5.64323 12.3024 5.64323C11.7725 5.64323 11.3428 5.20516 11.3428 4.66488C11.3428 4.12447 11.7725 3.68652 12.3024 3.68652C12.8324 3.68652 13.262 4.12447 13.262 4.66488Z" fill="white"/>
</g>
<defs>
<clipPath id="clip0_10_42">
<rect width="16" height="16.3137" fill="white" transform="translate(0 0.862793)"/>
</clipPath>
</defs>
</svg>
