<svg width="14" height="16" viewBox="0 0 14 16" fill="none" xmlns="http://www.w3.org/2000/svg">
<path d="M12.6 0.882324H1.4C0.63 0.882324 0 1.52468 0 2.30978V13.7294C0 14.5145 0.63 15.1568 1.4 15.1568H12.6C13.37 15.1568 14 14.5145 14 13.7294V2.30978C14 1.52468 13.37 0.882324 12.6 0.882324ZM4.2 13.0157H2.1V6.59213H4.2V13.0157ZM3.15 5.37879C2.45 5.37879 1.89 4.80781 1.89 4.09409C1.89 3.38036 2.45 2.80938 3.15 2.80938C3.85 2.80938 4.41 3.38036 4.41 4.09409C4.41 4.80781 3.85 5.37879 3.15 5.37879ZM11.9 13.0157H9.8V9.23291C9.8 8.66196 9.31 8.16232 8.75 8.16232C8.19 8.16232 7.7 8.66196 7.7 9.23291V13.0157H5.6V6.59213H7.7V7.4486C8.05 6.87762 8.82 6.44938 9.45 6.44938C10.78 6.44938 11.9 7.59134 11.9 8.94742V13.0157Z" fill="white"/>
</svg>
