<svg width="20" height="18" viewBox="0 0 20 18" fill="none" xmlns="http://www.w3.org/2000/svg">
<path d="M20 2.69682C19.2562 3.02947 18.4637 3.24996 17.6375 3.35702C18.4875 2.83957 19.1362 2.02643 19.4412 1.04633C18.6487 1.5281 17.7737 1.86839 16.8412 2.05829C16.0887 1.24133 15.0162 0.735352 13.8462 0.735352C11.5762 0.735352 9.74875 2.61398 9.74875 4.91702C9.74875 5.24839 9.77625 5.56702 9.84375 5.87035C6.435 5.70084 3.41875 4.03506 1.3925 1.49751C1.03875 2.12329 0.83125 2.83957 0.83125 3.61065C0.83125 5.05849 1.5625 6.34192 2.6525 7.08496C1.99375 7.07221 1.3475 6.87721 0.8 6.57006C0.8 6.5828 0.8 6.59937 0.8 6.61594C0.8 8.64751 2.22125 10.335 4.085 10.7237C3.75125 10.8167 3.3875 10.8613 3.01 10.8613C2.7475 10.8613 2.4825 10.846 2.23375 10.79C2.765 12.4455 4.2725 13.6627 6.065 13.7022C4.67 14.8149 2.89875 15.4853 0.98125 15.4853C0.645 15.4853 0.3225 15.47 0 15.4279C1.81625 16.6221 3.96875 17.304 6.29 17.304C13.835 17.304 17.96 10.9314 17.96 5.4077C17.96 5.2229 17.9537 5.04447 17.945 4.86731C18.7587 4.27849 19.4425 3.5431 20 2.69682Z" fill="white"/>
</svg>
